<svg class="icon" style="width: 1em;height: 1em;vertical-align: middle;fill: currentColor;overflow: hidden;" viewBox="0 0 1024 1024" version="1.1" xmlns="http://www.w3.org/2000/svg"><path d="M704 864v96H320v-96M160 64h704v128H160z" fill="#E0EBFE"></path><path d="M864 224a32 32 0 0 0 32-32V64a32 32 0 0 0-32-32H160a32 32 0 0 0-32 32v128a32 32 0 0 0 32 32h34.88l61.248 643.04A32 32 0 0 0 288 896v64a32 32 0 0 0 32 32h384a32 32 0 0 0 32-32v-64a32 32 0 0 0 31.872-28.96L829.088 224H864z m-192 704H352v-32h320v32z m34.88-96H317.12L277.44 416H746.56L706.88 832z m42.688-448H274.432L259.2 224h505.6l-15.232 160zM192 160V96h640v64H192z" fill="#5465CF"></path></svg>
