<svg class="icon" style="width: 1em;height: 1em;vertical-align: middle;fill: currentColor;overflow: hidden;" viewBox="0 0 1024 1024" version="1.1" xmlns="http://www.w3.org/2000/svg"><path d="M832 0H192c-42.24 0-76.8 34.56-76.8 76.8v870.4c0 42.24 34.56 76.8 76.8 76.8h640c42.24 0 76.8-34.56 76.8-76.8V76.8c0-42.24-34.56-76.8-76.8-76.8zM563.2 64h224v396.8l-112-102.4L563.2 460.8V64zM249.6 614.4h313.6c17.664 0 32 14.336 32 32s-14.336 32-32 32H249.6c-17.664 0-32-14.336-32-32s14.336-32 32-32z m537.6 236.8H249.6c-17.664 0-32-14.336-32-32s14.336-32 32-32h537.6c17.664 0 32 14.336 32 32s-14.336 32-32 32z" fill="#E5BE7F"></path></svg>
