<svg class="icon" style="width: 1em;height: 1em;vertical-align: middle;fill: currentColor;overflow: hidden;" viewBox="0 0 1024 1024" version="1.1" xmlns="http://www.w3.org/2000/svg"><path d="M632.38 505.8c2.95 1.58 3.54 4.13 3.54 6.1 0 1.77-0.59 4.33-3.54 6.1L398.89 652.66c-2.76 1.57-5.32 0.98-6.89 0-1.57-0.79-3.54-2.76-3.54-6.1V377.05c0-3.35 1.97-5.12 3.54-6.1 0.79-0.39 1.97-0.98 3.54-0.98 0.98 0 2.17 0.39 3.35 0.98L632.38 505.8z" fill="#E7C386"></path><path d="M838.89 164.43H185.28c-66.93 0-121.27 54.34-121.27 121.27v452.4c0 66.94 54.34 121.27 121.27 121.27h653.61c67.13 0 121.47-54.34 121.47-121.27V285.7c0-66.94-54.33-121.27-121.47-121.27zM661.91 568.99L428.42 703.85c-10.24 5.91-21.66 8.86-32.88 8.86-11.42 0-22.84-2.95-33.08-8.86-20.67-12.01-33.07-33.27-33.07-57.29V377.05c0-23.82 12.4-45.28 33.07-57.09 20.67-12.01 45.28-12.01 66.15 0L661.9 454.62c20.67 12.01 33.08 33.27 33.08 57.29 0 23.81-12.4 45.27-33.07 57.08z" fill="#E7C386"></path></svg>
