<svg class="icon" style="width: 1em;height: 1em;vertical-align: middle;fill: #0C34BA;overflow: hidden;" viewBox="0 0 1024 1024" version="1.1" xmlns="http://www.w3.org/2000/svg" p-id="13690"><path d="M71.68 225.28h880.64L849.92 921.6a102.4 102.4 0 0 1-102.4 102.4H276.48a102.4 102.4 0 0 1-102.4-102.4z"></path><path d="M245.76 0h532.48a30.72 30.72 0 0 1 30.72 30.72v92.16H215.04V30.72a30.72 30.72 0 0 1 30.72-30.72z"></path><path d="M0 122.88m20.48 0l983.04 0q20.48 0 20.48 20.48l0 61.44q0 20.48-20.48 20.48l-983.04 0q-20.48 0-20.48-20.48l0-61.44q0-20.48 20.48-20.48Z" p-id="13693"></path><path d="M102.4 481.28h819.2l-30.72 184.32H133.12z" fill="#fff" ></path></svg>
