<svg class="icon" style="width: 1em;height: 1em;vertical-align: middle;fill: currentColor;overflow: hidden;" viewBox="0 0 1024 1024" version="1.1" xmlns="http://www.w3.org/2000/svg" p-id="697"><path d="M512 405c-106.556 0-206.754-15.506-281.837-42.978-38.158-13.961-69.255-30.803-91.613-50.144C112.66 289.483 98 263.268 98 234.5s14.661-54.983 40.55-77.378c22.358-19.341 53.455-36.183 91.613-50.144C305.246 79.506 405.444 64 512 64c106.556 0 206.754 15.506 281.837 42.978 38.158 13.961 69.255 30.803 91.613 50.144C911.34 179.517 926 205.732 926 234.5s-14.661 54.983-40.55 77.378c-22.358 19.341-53.455 36.183-91.613 50.144C718.754 389.494 618.556 405 512 405z m0-60c99.904 0 193.205-14.439 261.22-39.325 31.849-11.653 56.752-25.14 72.976-39.175 13.768-11.91 19.804-22.702 19.804-32 0-9.298-6.036-20.09-19.804-32-16.224-14.035-41.127-27.522-72.975-39.175C705.205 138.439 611.904 124 512 124s-193.205 14.439-261.22 39.325c-31.849 11.653-56.752 25.14-72.976 39.175-13.768 11.91-19.804 22.702-19.804 32 0 9.298 6.036 20.09 19.804 32 16.224 14.035 41.127 27.522 72.975 39.175C318.795 330.561 412.096 345 512 345z m354 271c0-16.569 13.431-30 30-30 16.569 0 30 13.431 30 30v174c0 28.728-14.681 54.885-40.59 77.218-22.359 19.272-53.452 36.052-91.605 49.962C718.732 944.55 618.545 960 512 960c-106.545 0-206.732-15.45-281.805-42.82-38.153-13.91-69.246-30.69-91.605-49.962C112.68 844.885 98 818.728 98 790V616c0-16.569 13.431-30 30-30 16.569 0 30 13.431 30 30v174c0 9.202 6.016 19.921 19.764 31.77 16.224 13.986 41.13 27.427 72.983 39.04C318.772 885.61 412.085 900 512 900c99.915 0 193.228-14.39 261.253-39.19 31.852-11.613 56.759-25.054 72.983-39.04C859.984 809.922 866 799.203 866 790V616zM866 431c0-16.569 13.431-30 30-30 16.569 0 30 13.431 30 30v174c0 28.728-14.681 54.885-40.59 77.218-22.359 19.272-53.452 36.052-91.605 49.962C718.732 759.55 618.545 775 512 775c-106.545 0-206.732-15.45-281.805-42.82-38.153-13.91-69.246-30.69-91.605-49.962C112.68 659.885 98 633.728 98 605V431c0-16.569 13.431-30 30-30 16.569 0 30 13.431 30 30v174c0 9.202 6.016 19.921 19.764 31.77 16.224 13.986 41.13 27.427 72.983 39.04C318.772 700.61 412.085 715 512 715c99.915 0 193.228-14.39 261.253-39.19 31.852-11.613 56.759-25.054 72.983-39.04C859.984 624.922 866 614.203 866 605V431zM866 246c0-16.569 13.431-30 30-30 16.569 0 30 13.431 30 30v174c0 28.728-14.681 54.885-40.59 77.218-22.359 19.272-53.452 36.052-91.605 49.962C718.732 574.55 618.545 590 512 590c-106.545 0-206.732-15.45-281.805-42.82-38.153-13.91-69.246-30.69-91.605-49.962C112.68 474.885 98 448.728 98 420V246c0-16.569 13.431-30 30-30 16.569 0 30 13.431 30 30v174c0 9.202 6.016 19.921 19.764 31.77 16.224 13.986 41.13 27.427 72.983 39.04C318.772 515.61 412.085 530 512 530c99.915 0 193.228-14.39 261.253-39.19 31.852-11.613 56.759-25.054 72.983-39.04C859.984 439.922 866 429.203 866 420V246z" p-id="698"></path></svg>
