<svg class="icon" style="width: 1em;height: 1em;vertical-align: middle;fill: currentColor;overflow: hidden;" viewBox="0 0 1024 1024" version="1.1" xmlns="http://www.w3.org/2000/svg" p-id="631"><path d="M538.624 657.408H364.032c-11.264 0-19.968-8.704-19.968-19.968s8.704-19.968 19.968-19.968h174.592c11.264 0 19.968 8.704 19.968 19.968 0 10.752-9.216 19.968-19.968 19.968z m81.408-131.072h-256c-11.264 0-19.968-8.704-19.968-19.968s8.704-19.968 19.968-19.968h256c11.264 0 19.968 8.704 19.968 19.968s-8.704 19.968-19.968 19.968z m-433.664 231.936c-13.824 0-25.088 24.576-25.088 10.752V279.04c0-59.392 49.152-107.52 110.08-107.52h69.632c13.824 0 25.088 11.264 25.088 25.088s-11.264 25.088-25.088 25.088H271.36c-33.28 0-59.904 25.6-59.904 57.344v495.104c0 13.824-11.264 48.64-25.088 48.64v-64.512z m566.272 148.48H271.36c-60.416 0-110.08-48.128-110.08-107.52v-29.184c0-13.824 11.264-25.088 25.088-25.088s25.088 11.264 25.088 25.088v29.184c0 31.744 27.136 57.344 59.904 57.344h481.28c33.28 0 59.904-25.6 59.904-57.344V279.04c0-31.744-27.136-57.344-59.904-57.344h-70.656c-13.824 0-25.088-11.264-25.088-25.088s11.264-25.088 25.088-25.088H752.64c60.416 0 110.08 48.128 110.08 107.52v520.192c0 59.392-49.152 107.52-110.08 107.52zM620.544 315.392H402.944c-48.128 0-86.528-38.912-87.04-87.04v-36.864c0-48.128 38.912-86.528 87.04-87.04h217.6c48.128 0 87.04 38.912 87.04 87.04v36.864c-0.512 48.128-39.424 87.04-87.04 87.04zM402.944 155.136c-20.48 0-36.864 16.384-36.864 36.864v36.864c0 20.48 16.384 36.864 36.864 36.864h217.6c20.48 0 36.864-16.384 36.864-36.864v-36.864c0-20.48-16.384-36.864-36.864-36.864H402.944z" p-id="632"></path></svg>
