<svg class="icon" style="width: 1em;height: 1em;vertical-align: middle;fill: currentColor;overflow: hidden;" viewBox="0 0 1024 1024" version="1.1" xmlns="http://www.w3.org/2000/svg" p-id="510"><path d="M512 797.491a31.061 31.061 0 1 1 0-62.088 31.061 31.061 0 0 1 0 62.088zM674.133 409.6A162.167 162.167 0 0 1 537.6 569.72v95.88a25.6 25.6 0 1 1-51.2 0V546.133a25.6 25.6 0 0 1 25.6-25.6A110.933 110.933 0 1 0 401.067 409.6a25.6 25.6 0 1 1-51.2 0 162.133 162.133 0 1 1 324.266 0zM512 930.133C281.088 930.133 93.867 742.912 93.867 512S281.088 93.867 512 93.867 930.133 281.088 930.133 512 742.912 930.133 512 930.133z m0-51.2c202.65 0 366.933-164.283 366.933-366.933S714.65 145.067 512 145.067 145.067 309.35 145.067 512 309.35 878.933 512 878.933z" p-id="511"></path></svg>
