<svg class="icon" style="width: 1em;height: 1em;vertical-align: middle;fill: currentColor;overflow: hidden;" viewBox="0 0 1024 1024" version="1.1" xmlns="http://www.w3.org/2000/svg" p-id="521"><path d="M508.928 936.448c-234.496 0-423.936-189.952-423.936-424.448 0-170.496 101.888-324.096 259.072-390.144 215.552-91.136 464.384 9.728 556.032 225.792s-9.728 464.384-225.792 556.032c-52.224 21.504-108.544 32.768-165.376 32.768z m0-787.968c-200.704 0-364.032 163.328-364.032 364.032s163.328 364.032 364.032 364.032 364.032-163.328 364.032-364.032S709.632 148.48 508.928 148.48zM480.256 701.44v-89.088H405.504c-21.504-1.024-31.744-10.752-31.744-28.16 0-18.944 10.752-27.648 31.744-26.112h75.264v-30.208H405.504c-22.528 0-33.28-9.216-31.744-28.16-1.024-18.944 9.216-27.648 31.744-26.112H450.56L361.984 338.432c-10.24-18.944-7.68-32.768 7.68-41.472 16.384-8.704 30.208-3.584 41.472 14.848l97.792 146.432L604.16 312.32c13.824-18.944 28.672-23.552 45.056-14.848 14.848 11.264 16.896 25.6 5.632 43.008l-88.064 133.12h43.008c25.088 0 36.352 9.216 33.792 28.16 1.024 17.408-9.216 26.112-31.744 26.112h-75.264v30.208h75.264c25.088-1.024 36.352 8.192 33.792 28.16 1.024 17.408-10.24 26.112-33.792 26.112h-75.264V701.44c0 21.504-9.216 31.232-28.16 30.208-18.944 1.024-28.16-8.704-28.16-30.208z" p-id="522"></path></svg>
